<svg version="1.1" id="Layer_1" xmlns="http://www.w3.org/2000/svg" xmlns:xlink="http://www.w3.org/1999/xlink" x="0px" y="0px"
	 width="100%" viewBox="0 0 650 650" enable-background="new 0 0 650 650" xml:space="preserve">
<path fill="#010101" opacity="1.000000" stroke="none" 
	d="
M349.000000,651.000000 
	C232.666687,651.000000 116.833374,651.000000 1.000047,651.000000 
	C1.000031,434.333405 1.000031,217.666779 1.000015,1.000134 
	C217.666565,1.000089 434.333130,1.000089 650.999756,1.000045 
	C650.999878,217.666519 650.999878,434.333038 650.999939,650.999756 
	C550.500000,651.000000 450.000000,651.000000 349.000000,651.000000 
M339.459412,6.082412 
	C312.415497,5.435062 285.531494,6.490813 259.077972,12.942391 
	C198.484131,27.720238 150.217926,60.071423 117.067696,113.403397 
	C91.423141,154.660263 79.679146,200.215042 78.365456,248.466797 
	C77.284370,288.174896 85.004990,326.649200 97.748001,364.043365 
	C125.404663,445.201355 168.520355,517.512268 224.731461,582.044922 
	C242.503891,602.448425 262.303589,620.701904 285.995056,634.382996 
	C311.811035,649.290955 337.505310,649.841980 363.757599,635.508545 
	C381.495850,625.823608 396.808105,613.148804 411.017944,599.006348 
	C442.115448,568.056152 468.020416,533.045776 491.057770,495.847107 
	C521.377563,446.889526 546.514771,395.556152 561.544189,339.697998 
	C575.270264,288.683990 578.282654,237.413177 565.087891,185.732010 
	C552.840149,137.759811 530.121216,95.909988 492.425140,63.238598 
	C448.925476,25.537222 397.431763,8.317026 339.459412,6.082412 
z"/>
<path fill="#FEFEFE" opacity="1.000000" stroke="none" 
	d="
M339.951111,6.090228 
	C397.431763,8.317026 448.925476,25.537222 492.425140,63.238598 
	C530.121216,95.909988 552.840149,137.759811 565.087891,185.732010 
	C578.282654,237.413177 575.270264,288.683990 561.544189,339.697998 
	C546.514771,395.556152 521.377563,446.889526 491.057770,495.847107 
	C468.020416,533.045776 442.115448,568.056152 411.017944,599.006348 
	C396.808105,613.148804 381.495850,625.823608 363.757599,635.508545 
	C337.505310,649.841980 311.811035,649.290955 285.995056,634.382996 
	C262.303589,620.701904 242.503891,602.448425 224.731461,582.044922 
	C168.520355,517.512268 125.404663,445.201355 97.748001,364.043365 
	C85.004990,326.649200 77.284370,288.174896 78.365456,248.466797 
	C79.679146,200.215042 91.423141,154.660263 117.067696,113.403397 
	C150.217926,60.071423 198.484131,27.720238 259.077972,12.942391 
	C285.531494,6.490813 312.415497,5.435062 339.951111,6.090228 
M470.796295,434.278656 
	C493.263885,418.745392 511.344360,399.235992 523.473877,374.668610 
	C535.479675,350.351868 543.249939,324.921112 540.965210,297.320526 
	C539.361084,277.942291 528.052063,266.115692 509.891479,265.250061 
	C504.119080,264.974915 498.135895,265.257202 492.505371,266.471954 
	C439.606720,277.884247 397.907471,305.455322 370.564728,352.832947 
	C357.377411,375.683075 347.888123,399.780396 349.173279,427.021759 
	C350.053528,445.681061 361.986420,460.522888 380.426178,462.855255 
	C389.190613,463.963837 398.453033,463.711823 407.161011,462.192017 
	C430.286530,458.156006 450.864777,447.701538 470.796295,434.278656 
M302.045593,432.394379 
	C303.697876,421.379120 303.230530,410.400879 300.364288,399.690460 
	C284.559662,340.633026 248.571243,299.159393 191.813721,276.063080 
	C176.351471,269.771027 160.474350,264.784546 143.502258,265.149353 
	C126.258118,265.519989 115.481323,274.588593 111.937988,291.392151 
	C109.706711,301.973511 110.345932,312.563324 111.907860,323.171722 
	C122.461800,394.852631 180.411057,453.110962 252.390717,463.426788 
	C276.530426,466.886353 296.741119,458.351562 302.045593,432.394379 
z"/>
<path fill="#020202" opacity="1.000000" stroke="none" 
	d="
M470.511932,434.501648 
	C450.864777,447.701538 430.286530,458.156006 407.161011,462.192017 
	C398.453033,463.711823 389.190613,463.963837 380.426178,462.855255 
	C361.986420,460.522888 350.053528,445.681061 349.173279,427.021759 
	C347.888123,399.780396 357.377411,375.683075 370.564728,352.832947 
	C397.907471,305.455322 439.606720,277.884247 492.505371,266.471954 
	C498.135895,265.257202 504.119080,264.974915 509.891479,265.250061 
	C528.052063,266.115692 539.361084,277.942291 540.965210,297.320526 
	C543.249939,324.921112 535.479675,350.351868 523.473877,374.668610 
	C511.344360,399.235992 493.263885,418.745392 470.511932,434.501648 
z"/>
<path fill="#020202" opacity="1.000000" stroke="none" 
	d="
M301.993225,432.818451 
	C296.741119,458.351562 276.530426,466.886353 252.390717,463.426788 
	C180.411057,453.110962 122.461800,394.852631 111.907860,323.171722 
	C110.345932,312.563324 109.706711,301.973511 111.937988,291.392151 
	C115.481323,274.588593 126.258118,265.519989 143.502258,265.149353 
	C160.474350,264.784546 176.351471,269.771027 191.813721,276.063080 
	C248.571243,299.159393 284.559662,340.633026 300.364288,399.690460 
	C303.230530,410.400879 303.697876,421.379120 301.993225,432.818451 
z"/>
</svg>